<?xml version="1.0" standalone="no"?><!DOCTYPE svg PUBLIC "-//W3C//DTD SVG 1.1//EN" "http://www.w3.org/Graphics/SVG/1.1/DTD/svg11.dtd"><svg t="1607571897161" class="icon" viewBox="0 0 1024 1024" version="1.1" xmlns="http://www.w3.org/2000/svg" p-id="1293" xmlns:xlink="http://www.w3.org/1999/xlink" width="200" height="200"><defs><style type="text/css"></style></defs><path d="M737.2 307C624 193.7 440.2 193.7 327 307s-113.3 297 0 410.3 297 113.3 410.3 0 113.3-297-0.1-410.3zM363.1 681.1c-93.3-93.3-93.3-244.6 0-337.9 93.3-93.3 244.6-93.3 337.9 0 93.3 93.3 93.3 244.6 0 337.9-93.2 93.3-244.6 93.3-337.9 0z" p-id="1294"></path><path d="M658.8 421.6l-90.5 90.5 90.5 90.5-36.2 36.2-90.5-90.5-90.5 90.5-36.2-36.2 90.5-90.5-90.5-90.5 36.2-36.2 90.5 90.5 90.5-90.5z" p-id="1295"></path></svg>